{
  "accessors": [
    {
      "bufferView": 2,
      "componentType": 5126,
      "count": 9534,
      "max": [
        0.07324820011854172,
        0.08114223927259445,
        0.008999942801892757
      ],
      "min": [
        -0.07325243204832077,
        -0.06193815916776657,
        -0.008999942801892757
      ],
      "type": "VEC3"
    },
    {
      "bufferView": 2,
      "byteOffset": 114408,
      "componentType": 5126,
      "count": 9534,
      "max": [
        0.9992294907569885,
        0.999229371547699,
        1.0
      ],
      "min": [
        -0.9992294907569885,
        -0.9992293119430542,
        -1.0
      ],
      "type": "VEC3"
    },
    {
      "bufferView": 1,
      "componentType": 5126,
      "count": 9534,
      "max": [
        1.0,
        1.0
      ],
      "min": [
        0.0,
        0.0
      ],
      "type": "VEC2"
    },
    {
      "bufferView": 0,
      "componentType": 5125,
      "count": 50664,
      "type": "SCALAR"
    }
  ],
  "asset": {
    "extras": {
      "author": "emirkabal (https://sketchfab.com/emirkabal)",
      "license": "CC-BY-4.0 (http://creativecommons.org/licenses/by/4.0/)",
      "source": "https://sketchfab.com/3d-models/emir-kabal-3d-logo-4d053c05fe604976a27d8a0b0cd0fbd1",
      "title": "Emir Kabal 3D Logo"
    },
    "generator": "Sketchfab-15.37.0",
    "version": "2.0"
  },
  "bufferViews": [
    {
      "buffer": 0,
      "byteLength": 202656,
      "name": "floatBufferViews",
      "target": 34963
    },
    {
      "buffer": 0,
      "byteLength": 76272,
      "byteOffset": 202656,
      "byteStride": 8,
      "name": "floatBufferViews",
      "target": 34962
    },
    {
      "buffer": 0,
      "byteLength": 228816,
      "byteOffset": 278928,
      "byteStride": 12,
      "name": "floatBufferViews",
      "target": 34962
    }
  ],
  "buffers": [
    {
      "byteLength": 507744,
      "uri": "scene.bin"
    }
  ],
  "materials": [
    {
      "doubleSided": true,
      "name": "SVGMat",
      "pbrMetallicRoughness": {
        "baseColorFactor": [
          0.0,
          0.0,
          0.0,
          1.0
        ],
        "metallicFactor": 0.0,
        "roughnessFactor": 0.23009593934000558
      }
    }
  ],
  "meshes": [
    {
      "name": "SVGMat-material",
      "primitives": [
        {
          "attributes": {
            "NORMAL": 1,
            "POSITION": 0,
            "TEXCOORD_0": 2
          },
          "indices": 3,
          "material": 0,
          "mode": 4
        }
      ]
    }
  ],
  "nodes": [
    {
      "children": [
        1
      ],
      "matrix": [
        1.0,
        0.0,
        0.0,
        0.0,
        0.0,
        2.220446049250313e-16,
        -1.0,
        0.0,
        0.0,
        1.0,
        2.220446049250313e-16,
        0.0,
        0.0,
        0.0,
        0.0,
        1.0
      ],
      "name": "Sketchfab_model"
    },
    {
      "children": [
        2
      ],
      "name": "Collada visual scene group"
    },
    {
      "children": [
        3
      ],
      "matrix": [
        300.0,
        0.0,
        0.0,
        0.0,
        0.0,
        -1.31134e-05,
        300.0,
        0.0,
        0.0,
        -300.0,
        -1.31134e-05,
        0.0,
        0.0,
        0.0,
        0.0,
        1.0
      ],
      "name": "Curve.001"
    },
    {
      "mesh": 0,
      "name": "SVGMat-material"
    }
  ],
  "scene": 0,
  "scenes": [
    {
      "name": "Sketchfab_Scene",
      "nodes": [
        0
      ]
    }
  ]
}
